<svg version="1.1" xmlns="http://www.w3.org/2000/svg" xmlns:xlink="http://www.w3.org/1999/xlink" width="643.81982421875" height="808"><defs/><g><text fill="#eeeeee" stroke="none" font-family="Arial" font-size="24px" font-style="normal" font-weight="normal" text-decoration="none" x="0" y="0">UNREGISTERED</text><text fill="#eeeeee" stroke="none" font-family="Arial" font-size="24px" font-style="normal" font-weight="normal" text-decoration="none" x="0" y="30">UNREGISTERED</text><text fill="#eeeeee" stroke="none" font-family="Arial" font-size="24px" font-style="normal" font-weight="normal" text-decoration="none" x="0" y="60">UNREGISTERED</text><text fill="#eeeeee" stroke="none" font-family="Arial" font-size="24px" font-style="normal" font-weight="normal" text-decoration="none" x="0" y="90">UNREGISTERED</text><text fill="#eeeeee" stroke="none" font-family="Arial" font-size="24px" font-style="normal" font-weight="normal" text-decoration="none" x="0" y="120">UNREGISTERED</text><text fill="#eeeeee" stroke="none" font-family="Arial" font-size="24px" font-style="normal" font-weight="normal" text-decoration="none" x="0" y="150">UNREGISTERED</text><text fill="#eeeeee" stroke="none" font-family="Arial" font-size="24px" font-style="normal" font-weight="normal" text-decoration="none" x="0" y="180">UNREGISTERED</text><text fill="#eeeeee" stroke="none" font-family="Arial" font-size="24px" font-style="normal" font-weight="normal" text-decoration="none" x="0" y="210">UNREGISTERED</text><text fill="#eeeeee" stroke="none" font-family="Arial" font-size="24px" font-style="normal" font-weight="normal" text-decoration="none" x="0" y="240">UNREGISTERED</text><text fill="#eeeeee" stroke="none" font-family="Arial" font-size="24px" font-style="normal" font-weight="normal" text-decoration="none" x="0" y="270">UNREGISTERED</text><text fill="#eeeeee" stroke="none" font-family="Arial" font-size="24px" font-style="normal" font-weight="normal" text-decoration="none" x="0" y="300">UNREGISTERED</text><text fill="#eeeeee" stroke="none" font-family="Arial" font-size="24px" font-style="normal" font-weight="normal" text-decoration="none" x="0" y="330">UNREGISTERED</text><text fill="#eeeeee" stroke="none" font-family="Arial" font-size="24px" font-style="normal" font-weight="normal" text-decoration="none" x="0" y="360">UNREGISTERED</text><text fill="#eeeeee" stroke="none" font-family="Arial" font-size="24px" font-style="normal" font-weight="normal" text-decoration="none" x="0" y="390">UNREGISTERED</text><text fill="#eeeeee" stroke="none" font-family="Arial" font-size="24px" font-style="normal" font-weight="normal" text-decoration="none" x="0" y="420">UNREGISTERED</text><text fill="#eeeeee" stroke="none" font-family="Arial" font-size="24px" font-style="normal" font-weight="normal" text-decoration="none" x="0" y="450">UNREGISTERED</text><text fill="#eeeeee" stroke="none" font-family="Arial" font-size="24px" font-style="normal" font-weight="normal" text-decoration="none" x="0" y="480">UNREGISTERED</text><text fill="#eeeeee" stroke="none" font-family="Arial" font-size="24px" font-style="normal" font-weight="normal" text-decoration="none" x="0" y="510">UNREGISTERED</text><text fill="#eeeeee" stroke="none" font-family="Arial" font-size="24px" font-style="normal" font-weight="normal" text-decoration="none" x="0" y="540">UNREGISTERED</text><text fill="#eeeeee" stroke="none" font-family="Arial" font-size="24px" font-style="normal" font-weight="normal" text-decoration="none" x="0" y="570">UNREGISTERED</text><text fill="#eeeeee" stroke="none" font-family="Arial" font-size="24px" font-style="normal" font-weight="normal" text-decoration="none" x="0" y="600">UNREGISTERED</text><text fill="#eeeeee" stroke="none" font-family="Arial" font-size="24px" font-style="normal" font-weight="normal" text-decoration="none" x="0" y="630">UNREGISTERED</text><text fill="#eeeeee" stroke="none" font-family="Arial" font-size="24px" font-style="normal" font-weight="normal" text-decoration="none" x="0" y="660">UNREGISTERED</text><text fill="#eeeeee" stroke="none" font-family="Arial" font-size="24px" font-style="normal" font-weight="normal" text-decoration="none" x="0" y="690">UNREGISTERED</text><text fill="#eeeeee" stroke="none" font-family="Arial" font-size="24px" font-style="normal" font-weight="normal" text-decoration="none" x="0" y="720">UNREGISTERED</text><text fill="#eeeeee" stroke="none" font-family="Arial" font-size="24px" font-style="normal" font-weight="normal" text-decoration="none" x="0" y="750">UNREGISTERED</text><text fill="#eeeeee" stroke="none" font-family="Arial" font-size="24px" font-style="normal" font-weight="normal" text-decoration="none" x="0" y="780">UNREGISTERED</text><text fill="#eeeeee" stroke="none" font-family="Arial" font-size="24px" font-style="normal" font-weight="normal" text-decoration="none" x="200" y="0">UNREGISTERED</text><text fill="#eeeeee" stroke="none" font-family="Arial" font-size="24px" font-style="normal" font-weight="normal" text-decoration="none" x="200" y="30">UNREGISTERED</text><text fill="#eeeeee" stroke="none" font-family="Arial" font-size="24px" font-style="normal" font-weight="normal" text-decoration="none" x="200" y="60">UNREGISTERED</text><text fill="#eeeeee" stroke="none" font-family="Arial" font-size="24px" font-style="normal" font-weight="normal" text-decoration="none" x="200" y="90">UNREGISTERED</text><text fill="#eeeeee" stroke="none" font-family="Arial" font-size="24px" font-style="normal" font-weight="normal" text-decoration="none" x="200" y="120">UNREGISTERED</text><text fill="#eeeeee" stroke="none" font-family="Arial" font-size="24px" font-style="normal" font-weight="normal" text-decoration="none" x="200" y="150">UNREGISTERED</text><text fill="#eeeeee" stroke="none" font-family="Arial" font-size="24px" font-style="normal" font-weight="normal" text-decoration="none" x="200" y="180">UNREGISTERED</text><text fill="#eeeeee" stroke="none" font-family="Arial" font-size="24px" font-style="normal" font-weight="normal" text-decoration="none" x="200" y="210">UNREGISTERED</text><text fill="#eeeeee" stroke="none" font-family="Arial" font-size="24px" font-style="normal" font-weight="normal" text-decoration="none" x="200" y="240">UNREGISTERED</text><text fill="#eeeeee" stroke="none" font-family="Arial" font-size="24px" font-style="normal" font-weight="normal" text-decoration="none" x="200" y="270">UNREGISTERED</text><text fill="#eeeeee" stroke="none" font-family="Arial" font-size="24px" font-style="normal" font-weight="normal" text-decoration="none" x="200" y="300">UNREGISTERED</text><text fill="#eeeeee" stroke="none" font-family="Arial" font-size="24px" font-style="normal" font-weight="normal" text-decoration="none" x="200" y="330">UNREGISTERED</text><text fill="#eeeeee" stroke="none" font-family="Arial" font-size="24px" font-style="normal" font-weight="normal" text-decoration="none" x="200" y="360">UNREGISTERED</text><text fill="#eeeeee" stroke="none" font-family="Arial" font-size="24px" font-style="normal" font-weight="normal" text-decoration="none" x="200" y="390">UNREGISTERED</text><text fill="#eeeeee" stroke="none" font-family="Arial" font-size="24px" font-style="normal" font-weight="normal" text-decoration="none" x="200" y="420">UNREGISTERED</text><text fill="#eeeeee" stroke="none" font-family="Arial" font-size="24px" font-style="normal" font-weight="normal" text-decoration="none" x="200" y="450">UNREGISTERED</text><text fill="#eeeeee" stroke="none" font-family="Arial" font-size="24px" font-style="normal" font-weight="normal" text-decoration="none" x="200" y="480">UNREGISTERED</text><text fill="#eeeeee" stroke="none" font-family="Arial" font-size="24px" font-style="normal" font-weight="normal" text-decoration="none" x="200" y="510">UNREGISTERED</text><text fill="#eeeeee" stroke="none" font-family="Arial" font-size="24px" font-style="normal" font-weight="normal" text-decoration="none" x="200" y="540">UNREGISTERED</text><text fill="#eeeeee" stroke="none" font-family="Arial" font-size="24px" font-style="normal" font-weight="normal" text-decoration="none" x="200" y="570">UNREGISTERED</text><text fill="#eeeeee" stroke="none" font-family="Arial" font-size="24px" font-style="normal" font-weight="normal" text-decoration="none" x="200" y="600">UNREGISTERED</text><text fill="#eeeeee" stroke="none" font-family="Arial" font-size="24px" font-style="normal" font-weight="normal" text-decoration="none" x="200" y="630">UNREGISTERED</text><text fill="#eeeeee" stroke="none" font-family="Arial" font-size="24px" font-style="normal" font-weight="normal" text-decoration="none" x="200" y="660">UNREGISTERED</text><text fill="#eeeeee" stroke="none" font-family="Arial" font-size="24px" font-style="normal" font-weight="normal" text-decoration="none" x="200" y="690">UNREGISTERED</text><text fill="#eeeeee" stroke="none" font-family="Arial" font-size="24px" font-style="normal" font-weight="normal" text-decoration="none" x="200" y="720">UNREGISTERED</text><text fill="#eeeeee" stroke="none" font-family="Arial" font-size="24px" font-style="normal" font-weight="normal" text-decoration="none" x="200" y="750">UNREGISTERED</text><text fill="#eeeeee" stroke="none" font-family="Arial" font-size="24px" font-style="normal" font-weight="normal" text-decoration="none" x="200" y="780">UNREGISTERED</text><text fill="#eeeeee" stroke="none" font-family="Arial" font-size="24px" font-style="normal" font-weight="normal" text-decoration="none" x="400" y="0">UNREGISTERED</text><text fill="#eeeeee" stroke="none" font-family="Arial" font-size="24px" font-style="normal" font-weight="normal" text-decoration="none" x="400" y="30">UNREGISTERED</text><text fill="#eeeeee" stroke="none" font-family="Arial" font-size="24px" font-style="normal" font-weight="normal" text-decoration="none" x="400" y="60">UNREGISTERED</text><text fill="#eeeeee" stroke="none" font-family="Arial" font-size="24px" font-style="normal" font-weight="normal" text-decoration="none" x="400" y="90">UNREGISTERED</text><text fill="#eeeeee" stroke="none" font-family="Arial" font-size="24px" font-style="normal" font-weight="normal" text-decoration="none" x="400" y="120">UNREGISTERED</text><text fill="#eeeeee" stroke="none" font-family="Arial" font-size="24px" font-style="normal" font-weight="normal" text-decoration="none" x="400" y="150">UNREGISTERED</text><text fill="#eeeeee" stroke="none" font-family="Arial" font-size="24px" font-style="normal" font-weight="normal" text-decoration="none" x="400" y="180">UNREGISTERED</text><text fill="#eeeeee" stroke="none" font-family="Arial" font-size="24px" font-style="normal" font-weight="normal" text-decoration="none" x="400" y="210">UNREGISTERED</text><text fill="#eeeeee" stroke="none" font-family="Arial" font-size="24px" font-style="normal" font-weight="normal" text-decoration="none" x="400" y="240">UNREGISTERED</text><text fill="#eeeeee" stroke="none" font-family="Arial" font-size="24px" font-style="normal" font-weight="normal" text-decoration="none" x="400" y="270">UNREGISTERED</text><text fill="#eeeeee" stroke="none" font-family="Arial" font-size="24px" font-style="normal" font-weight="normal" text-decoration="none" x="400" y="300">UNREGISTERED</text><text fill="#eeeeee" stroke="none" font-family="Arial" font-size="24px" font-style="normal" font-weight="normal" text-decoration="none" x="400" y="330">UNREGISTERED</text><text fill="#eeeeee" stroke="none" font-family="Arial" font-size="24px" font-style="normal" font-weight="normal" text-decoration="none" x="400" y="360">UNREGISTERED</text><text fill="#eeeeee" stroke="none" font-family="Arial" font-size="24px" font-style="normal" font-weight="normal" text-decoration="none" x="400" y="390">UNREGISTERED</text><text fill="#eeeeee" stroke="none" font-family="Arial" font-size="24px" font-style="normal" font-weight="normal" text-decoration="none" x="400" y="420">UNREGISTERED</text><text fill="#eeeeee" stroke="none" font-family="Arial" font-size="24px" font-style="normal" font-weight="normal" text-decoration="none" x="400" y="450">UNREGISTERED</text><text fill="#eeeeee" stroke="none" font-family="Arial" font-size="24px" font-style="normal" font-weight="normal" text-decoration="none" x="400" y="480">UNREGISTERED</text><text fill="#eeeeee" stroke="none" font-family="Arial" font-size="24px" font-style="normal" font-weight="normal" text-decoration="none" x="400" y="510">UNREGISTERED</text><text fill="#eeeeee" stroke="none" font-family="Arial" font-size="24px" font-style="normal" font-weight="normal" text-decoration="none" x="400" y="540">UNREGISTERED</text><text fill="#eeeeee" stroke="none" font-family="Arial" font-size="24px" font-style="normal" font-weight="normal" text-decoration="none" x="400" y="570">UNREGISTERED</text><text fill="#eeeeee" stroke="none" font-family="Arial" font-size="24px" font-style="normal" font-weight="normal" text-decoration="none" x="400" y="600">UNREGISTERED</text><text fill="#eeeeee" stroke="none" font-family="Arial" font-size="24px" font-style="normal" font-weight="normal" text-decoration="none" x="400" y="630">UNREGISTERED</text><text fill="#eeeeee" stroke="none" font-family="Arial" font-size="24px" font-style="normal" font-weight="normal" text-decoration="none" x="400" y="660">UNREGISTERED</text><text fill="#eeeeee" stroke="none" font-family="Arial" font-size="24px" font-style="normal" font-weight="normal" text-decoration="none" x="400" y="690">UNREGISTERED</text><text fill="#eeeeee" stroke="none" font-family="Arial" font-size="24px" font-style="normal" font-weight="normal" text-decoration="none" x="400" y="720">UNREGISTERED</text><text fill="#eeeeee" stroke="none" font-family="Arial" font-size="24px" font-style="normal" font-weight="normal" text-decoration="none" x="400" y="750">UNREGISTERED</text><text fill="#eeeeee" stroke="none" font-family="Arial" font-size="24px" font-style="normal" font-weight="normal" text-decoration="none" x="400" y="780">UNREGISTERED</text><text fill="#eeeeee" stroke="none" font-family="Arial" font-size="24px" font-style="normal" font-weight="normal" text-decoration="none" x="600" y="0">UNREGISTERED</text><text fill="#eeeeee" stroke="none" font-family="Arial" font-size="24px" font-style="normal" font-weight="normal" text-decoration="none" x="600" y="30">UNREGISTERED</text><text fill="#eeeeee" stroke="none" font-family="Arial" font-size="24px" font-style="normal" font-weight="normal" text-decoration="none" x="600" y="60">UNREGISTERED</text><text fill="#eeeeee" stroke="none" font-family="Arial" font-size="24px" font-style="normal" font-weight="normal" text-decoration="none" x="600" y="90">UNREGISTERED</text><text fill="#eeeeee" stroke="none" font-family="Arial" font-size="24px" font-style="normal" font-weight="normal" text-decoration="none" x="600" y="120">UNREGISTERED</text><text fill="#eeeeee" stroke="none" font-family="Arial" font-size="24px" font-style="normal" font-weight="normal" text-decoration="none" x="600" y="150">UNREGISTERED</text><text fill="#eeeeee" stroke="none" font-family="Arial" font-size="24px" font-style="normal" font-weight="normal" text-decoration="none" x="600" y="180">UNREGISTERED</text><text fill="#eeeeee" stroke="none" font-family="Arial" font-size="24px" font-style="normal" font-weight="normal" text-decoration="none" x="600" y="210">UNREGISTERED</text><text fill="#eeeeee" stroke="none" font-family="Arial" font-size="24px" font-style="normal" font-weight="normal" text-decoration="none" x="600" y="240">UNREGISTERED</text><text fill="#eeeeee" stroke="none" font-family="Arial" font-size="24px" font-style="normal" font-weight="normal" text-decoration="none" x="600" y="270">UNREGISTERED</text><text fill="#eeeeee" stroke="none" font-family="Arial" font-size="24px" font-style="normal" font-weight="normal" text-decoration="none" x="600" y="300">UNREGISTERED</text><text fill="#eeeeee" stroke="none" font-family="Arial" font-size="24px" font-style="normal" font-weight="normal" text-decoration="none" x="600" y="330">UNREGISTERED</text><text fill="#eeeeee" stroke="none" font-family="Arial" font-size="24px" font-style="normal" font-weight="normal" text-decoration="none" x="600" y="360">UNREGISTERED</text><text fill="#eeeeee" stroke="none" font-family="Arial" font-size="24px" font-style="normal" font-weight="normal" text-decoration="none" x="600" y="390">UNREGISTERED</text><text fill="#eeeeee" stroke="none" font-family="Arial" font-size="24px" font-style="normal" font-weight="normal" text-decoration="none" x="600" y="420">UNREGISTERED</text><text fill="#eeeeee" stroke="none" font-family="Arial" font-size="24px" font-style="normal" font-weight="normal" text-decoration="none" x="600" y="450">UNREGISTERED</text><text fill="#eeeeee" stroke="none" font-family="Arial" font-size="24px" font-style="normal" font-weight="normal" text-decoration="none" x="600" y="480">UNREGISTERED</text><text fill="#eeeeee" stroke="none" font-family="Arial" font-size="24px" font-style="normal" font-weight="normal" text-decoration="none" x="600" y="510">UNREGISTERED</text><text fill="#eeeeee" stroke="none" font-family="Arial" font-size="24px" font-style="normal" font-weight="normal" text-decoration="none" x="600" y="540">UNREGISTERED</text><text fill="#eeeeee" stroke="none" font-family="Arial" font-size="24px" font-style="normal" font-weight="normal" text-decoration="none" x="600" y="570">UNREGISTERED</text><text fill="#eeeeee" stroke="none" font-family="Arial" font-size="24px" font-style="normal" font-weight="normal" text-decoration="none" x="600" y="600">UNREGISTERED</text><text fill="#eeeeee" stroke="none" font-family="Arial" font-size="24px" font-style="normal" font-weight="normal" text-decoration="none" x="600" y="630">UNREGISTERED</text><text fill="#eeeeee" stroke="none" font-family="Arial" font-size="24px" font-style="normal" font-weight="normal" text-decoration="none" x="600" y="660">UNREGISTERED</text><text fill="#eeeeee" stroke="none" font-family="Arial" font-size="24px" font-style="normal" font-weight="normal" text-decoration="none" x="600" y="690">UNREGISTERED</text><text fill="#eeeeee" stroke="none" font-family="Arial" font-size="24px" font-style="normal" font-weight="normal" text-decoration="none" x="600" y="720">UNREGISTERED</text><text fill="#eeeeee" stroke="none" font-family="Arial" font-size="24px" font-style="normal" font-weight="normal" text-decoration="none" x="600" y="750">UNREGISTERED</text><text fill="#eeeeee" stroke="none" font-family="Arial" font-size="24px" font-style="normal" font-weight="normal" text-decoration="none" x="600" y="780">UNREGISTERED</text><g transform="translate(-158,-46) scale(1,1)"><rect fill="#C0C0C0" stroke="none" x="215" y="343" width="118.47802734375" height="57" opacity="0.2"/></g><g transform="translate(-158,-46) scale(1,1)"><rect fill="#ffffff" stroke="none" x="208" y="336" width="118.47802734375" height="57"/></g><g transform="translate(-158,-46) scale(1,1)"><path fill="none" stroke="#000000" d="M 208 336 L 326.47802734375 336 L 326.47802734375 393 L 208 393 L 208 336 Z Z" stroke-miterlimit="10"/></g><g transform="translate(-158,-46) scale(1,1)"><path fill="none" stroke="#000000" d="M 208 361 L 326.47802734375 361" stroke-miterlimit="10"/></g><g transform="translate(-158,-46) scale(1,1)"><path fill="none" stroke="#000000" d="M 208 384 L 326.47802734375 384" stroke-miterlimit="10"/></g><g transform="translate(-158,-46) scale(1,1)"><g><path fill="none" stroke="none"/><text fill="#000000" stroke="none" font-family="Arial" font-size="13px" font-style="normal" font-weight="bold" text-decoration="none" x="233.634521484375" y="355.5">Place Hand</text></g></g><g transform="translate(-158,-46) scale(1,1)"><g><path fill="none" stroke="none"/><text fill="#000000" stroke="none" font-family="Arial" font-size="13px" font-style="normal" font-weight="normal" text-decoration="none" x="213" y="378.5">-_go: GameObject</text></g></g><g transform="translate(-158,-46) scale(1,1)"><rect fill="#C0C0C0" stroke="none" x="311" y="215" width="76.89453125" height="44" opacity="0.2"/></g><g transform="translate(-158,-46) scale(1,1)"><rect fill="#ffffff" stroke="none" x="304" y="208" width="76.89453125" height="44"/></g><g transform="translate(-158,-46) scale(1,1)"><path fill="none" stroke="#000000" d="M 304 208 L 380.89453125 208 L 380.89453125 252 L 304 252 L 304 208 Z Z" stroke-miterlimit="10"/></g><g transform="translate(-158,-46) scale(1,1)"><path fill="none" stroke="#000000" d="M 304 233 L 380.89453125 233" stroke-miterlimit="10"/></g><g transform="translate(-158,-46) scale(1,1)"><path fill="none" stroke="#000000" d="M 304 243 L 380.89453125 243" stroke-miterlimit="10"/></g><g transform="translate(-158,-46) scale(1,1)"><g><path fill="none" stroke="none"/><text fill="#000000" stroke="none" font-family="Arial" font-size="13px" font-style="normal" font-weight="bold" text-decoration="none" x="310.293212890625" y="227.5">Main menu</text></g></g><g transform="translate(-158,-46) scale(1,1)"><rect fill="#C0C0C0" stroke="none" x="407" y="343" width="76.16455078125" height="44" opacity="0.2"/></g><g transform="translate(-158,-46) scale(1,1)"><rect fill="#ffffff" stroke="none" x="400" y="336" width="76.16455078125" height="44"/></g><g transform="translate(-158,-46) scale(1,1)"><path fill="none" stroke="#000000" d="M 400 336 L 476.16455078125 336 L 476.16455078125 380 L 400 380 L 400 336 Z Z" stroke-miterlimit="10"/></g><g transform="translate(-158,-46) scale(1,1)"><path fill="none" stroke="#000000" d="M 400 361 L 476.16455078125 361" stroke-miterlimit="10"/></g><g transform="translate(-158,-46) scale(1,1)"><path fill="none" stroke="#000000" d="M 400 371 L 476.16455078125 371" stroke-miterlimit="10"/></g><g transform="translate(-158,-46) scale(1,1)"><g><path fill="none" stroke="none"/><text fill="#000000" stroke="none" font-family="Arial" font-size="13px" font-style="normal" font-weight="bold" text-decoration="none" x="407.365966796875" y="355.5">Add object</text></g></g><g transform="translate(-158,-46) scale(1,1)"><rect fill="#C0C0C0" stroke="none" x="455" y="63" width="112" height="57" opacity="0.2"/></g><g transform="translate(-158,-46) scale(1,1)"><rect fill="#ffffff" stroke="none" x="448" y="56" width="112" height="57"/></g><g transform="translate(-158,-46) scale(1,1)"><path fill="none" stroke="#000000" d="M 448 56 L 560 56 L 560 113 L 448 113 L 448 56 Z Z" stroke-miterlimit="10"/></g><g transform="translate(-158,-46) scale(1,1)"><path fill="none" stroke="#000000" d="M 448 94 L 560 94" stroke-miterlimit="10"/></g><g transform="translate(-158,-46) scale(1,1)"><path fill="none" stroke="#000000" d="M 448 104 L 560 104" stroke-miterlimit="10"/></g><g transform="translate(-158,-46) scale(1,1)"><g><path fill="none" stroke="none"/><text fill="#000000" stroke="none" font-family="Arial" font-size="13px" font-style="normal" font-weight="normal" text-decoration="none" x="471.477783203125" y="73.5">«Interface»</text></g></g><g transform="translate(-158,-46) scale(1,1)"><g><path fill="none" stroke="none"/><text fill="#000000" stroke="none" font-family="Arial" font-size="13px" font-style="normal" font-weight="bold" text-decoration="none" x="487.740478515625" y="88.5">Menu</text></g></g><g transform="translate(-158,-46) scale(1,1)"><path fill="none" stroke="#000000" d="M 359 253 L 421 335" stroke-miterlimit="10"/></g><g transform="translate(-158,-46) scale(1,1)"><g><path fill="none" stroke="none"/><text fill="#000000" stroke="none" font-family="Arial" font-size="13px" font-style="normal" font-weight="normal" text-decoration="none" x="358.5" y="283.5">1</text></g></g><g transform="translate(-158,-46) scale(1,1)"><g><path fill="none" stroke="none"/><text fill="#000000" stroke="none" font-family="Arial" font-size="13px" font-style="normal" font-weight="normal" text-decoration="none" x="393.5" y="331.5">1</text></g></g><g transform="translate(-158,-46) scale(1,1)"><path fill="none" stroke="#000000" d="M 329 253 L 283 335" stroke-miterlimit="10"/></g><g transform="translate(-158,-46) scale(1,1)"><g><path fill="none" stroke="none"/><text fill="#000000" stroke="none" font-family="Arial" font-size="13px" font-style="normal" font-weight="normal" text-decoration="none" x="303.5" y="271.5">1</text></g></g><g transform="translate(-158,-46) scale(1,1)"><g><path fill="none" stroke="none"/><text fill="#000000" stroke="none" font-family="Arial" font-size="13px" font-style="normal" font-weight="normal" text-decoration="none" x="278.5" y="316.5">1</text></g></g><g transform="translate(-158,-46) scale(1,1)"><rect fill="#C0C0C0" stroke="none" x="303" y="527" width="183.484375" height="115" opacity="0.2"/></g><g transform="translate(-158,-46) scale(1,1)"><rect fill="#ffffff" stroke="none" x="296" y="520" width="183.484375" height="115"/></g><g transform="translate(-158,-46) scale(1,1)"><path fill="none" stroke="#000000" d="M 296 520 L 479.484375 520 L 479.484375 635 L 296 635 L 296 520 Z Z" stroke-miterlimit="10"/></g><g transform="translate(-158,-46) scale(1,1)"><path fill="none" stroke="#000000" d="M 296 545 L 479.484375 545" stroke-miterlimit="10"/></g><g transform="translate(-158,-46) scale(1,1)"><path fill="none" stroke="#000000" d="M 296 568 L 479.484375 568" stroke-miterlimit="10"/></g><g transform="translate(-158,-46) scale(1,1)"><g><path fill="none" stroke="none"/><text fill="#000000" stroke="none" font-family="Arial" font-size="13px" font-style="normal" font-weight="bold" text-decoration="none" x="349.0849609375" y="539.5">Select Object</text></g></g><g transform="translate(-158,-46) scale(1,1)"><g><path fill="none" stroke="none"/><text fill="#000000" stroke="none" font-family="Arial" font-size="13px" font-style="normal" font-weight="normal" text-decoration="none" x="301" y="562.5">-_go: GameObject</text></g></g><g transform="translate(-158,-46) scale(1,1)"><g><path fill="none" stroke="none"/><text fill="#000000" stroke="none" font-family="Arial" font-size="13px" font-style="normal" font-weight="normal" text-decoration="none" x="301" y="585.5">+ResetColor(): void</text></g></g><g transform="translate(-158,-46) scale(1,1)"><g><path fill="none" stroke="none"/><text fill="#000000" stroke="none" font-family="Arial" font-size="13px" font-style="normal" font-weight="normal" text-decoration="none" x="301" y="600.5">+GetObject(): GameObject</text></g></g><g transform="translate(-158,-46) scale(1,1)"><g><path fill="none" stroke="none"/><text fill="#000000" stroke="none" font-family="Arial" font-size="13px" font-style="normal" font-weight="normal" text-decoration="none" x="301" y="615.5">+GetHitPoint(): Vector3</text></g></g><g transform="translate(-158,-46) scale(1,1)"><g><path fill="none" stroke="none"/><text fill="#000000" stroke="none" font-family="Arial" font-size="13px" font-style="normal" font-weight="normal" text-decoration="none" x="301" y="630.5">+GetHitpointNormal(): Vector3</text></g></g><g transform="translate(-158,-46) scale(1,1)"><rect fill="#C0C0C0" stroke="none" x="655" y="343" width="97.8544921875" height="44" opacity="0.2"/></g><g transform="translate(-158,-46) scale(1,1)"><rect fill="#ffffff" stroke="none" x="648" y="336" width="97.8544921875" height="44"/></g><g transform="translate(-158,-46) scale(1,1)"><path fill="none" stroke="#000000" d="M 648 336 L 745.8544921875 336 L 745.8544921875 380 L 648 380 L 648 336 Z Z" stroke-miterlimit="10"/></g><g transform="translate(-158,-46) scale(1,1)"><path fill="none" stroke="#000000" d="M 648 361 L 745.8544921875 361" stroke-miterlimit="10"/></g><g transform="translate(-158,-46) scale(1,1)"><path fill="none" stroke="#000000" d="M 648 371 L 745.8544921875 371" stroke-miterlimit="10"/></g><g transform="translate(-158,-46) scale(1,1)"><g><path fill="none" stroke="none"/><text fill="#000000" stroke="none" font-family="Arial" font-size="13px" font-style="normal" font-weight="bold" text-decoration="none" x="654.65185546875" y="355.5">ManageObject</text></g></g><g transform="translate(-158,-46) scale(1,1)"><path fill="none" stroke="#000000" d="M 477 358 L 647 358" stroke-miterlimit="10"/></g><g transform="translate(-158,-46) scale(1,1)"><path fill="none" stroke="#000000" d="M 636.8373251423759 362.209517756016 L 647 358 L 636.8373251423758 353.790482243984" stroke-miterlimit="10"/></g><g transform="translate(-158,-46) scale(1,1)"><rect fill="#C0C0C0" stroke="none" x="199" y="751" width="183.484375" height="100" opacity="0.2"/></g><g transform="translate(-158,-46) scale(1,1)"><rect fill="#ffffff" stroke="none" x="192" y="744" width="183.484375" height="100"/></g><g transform="translate(-158,-46) scale(1,1)"><path fill="none" stroke="#000000" d="M 192 744 L 375.484375 744 L 375.484375 844 L 192 844 L 192 744 Z Z" stroke-miterlimit="10"/></g><g transform="translate(-158,-46) scale(1,1)"><path fill="none" stroke="#000000" d="M 192 769 L 375.484375 769" stroke-miterlimit="10"/></g><g transform="translate(-158,-46) scale(1,1)"><path fill="none" stroke="#000000" d="M 192 792 L 375.484375 792" stroke-miterlimit="10"/></g><g transform="translate(-158,-46) scale(1,1)"><g><path fill="none" stroke="none"/><text fill="#000000" stroke="none" font-family="Arial" font-size="13px" font-style="normal" font-weight="bold" text-decoration="none" x="242.193603515625" y="763.5">Hand Checker</text></g></g><g transform="translate(-158,-46) scale(1,1)"><g><path fill="none" stroke="none"/><text fill="#000000" stroke="none" font-family="Arial" font-size="13px" font-style="normal" font-weight="normal" text-decoration="none" x="197" y="786.5">-_go: GameObject</text></g></g><g transform="translate(-158,-46) scale(1,1)"><g><path fill="none" stroke="none"/><text fill="#000000" stroke="none" font-family="Arial" font-size="13px" font-style="normal" font-weight="normal" text-decoration="none" x="197" y="809.5">+HasLeftHand(obj): bool</text></g></g><g transform="translate(-158,-46) scale(1,1)"><g><path fill="none" stroke="none"/><text fill="#000000" stroke="none" font-family="Arial" font-size="13px" font-style="normal" font-weight="normal" text-decoration="none" x="197" y="824.5">+HasRightHand(obj): bool</text></g></g><g transform="translate(-158,-46) scale(1,1)"><g><path fill="none" stroke="none"/><text fill="#000000" stroke="none" font-family="Arial" font-size="13px" font-style="normal" font-weight="normal" text-decoration="none" x="197" y="839.5">+HasHand(obj): bool</text></g></g><g transform="translate(-158,-46) scale(1,1)"><rect fill="#C0C0C0" stroke="none" x="431" y="751" width="174.07080078125" height="85" opacity="0.2"/></g><g transform="translate(-158,-46) scale(1,1)"><rect fill="#ffffff" stroke="none" x="424" y="744" width="174.07080078125" height="85"/></g><g transform="translate(-158,-46) scale(1,1)"><path fill="none" stroke="#000000" d="M 424 744 L 598.07080078125 744 L 598.07080078125 829 L 424 829 L 424 744 Z Z" stroke-miterlimit="10"/></g><g transform="translate(-158,-46) scale(1,1)"><path fill="none" stroke="#000000" d="M 424 769 L 598.07080078125 769" stroke-miterlimit="10"/></g><g transform="translate(-158,-46) scale(1,1)"><path fill="none" stroke="#000000" d="M 424 792 L 598.07080078125 792" stroke-miterlimit="10"/></g><g transform="translate(-158,-46) scale(1,1)"><g><path fill="none" stroke="none"/><text fill="#000000" stroke="none" font-family="Arial" font-size="13px" font-style="normal" font-weight="bold" text-decoration="none" x="463.345458984375" y="763.5">Hand Movement</text></g></g><g transform="translate(-158,-46) scale(1,1)"><g><path fill="none" stroke="none"/><text fill="#000000" stroke="none" font-family="Arial" font-size="13px" font-style="normal" font-weight="normal" text-decoration="none" x="429" y="786.5">-_go: GameObject</text></g></g><g transform="translate(-158,-46) scale(1,1)"><g><path fill="none" stroke="none"/><text fill="#000000" stroke="none" font-family="Arial" font-size="13px" font-style="normal" font-weight="normal" text-decoration="none" x="429" y="809.5">+HandleRotateHand(): void</text></g></g><g transform="translate(-158,-46) scale(1,1)"><g><path fill="none" stroke="none"/><text fill="#000000" stroke="none" font-family="Arial" font-size="13px" font-style="normal" font-weight="normal" text-decoration="none" x="429" y="824.5">+CastRayFromObject(): void</text></g></g><g transform="translate(-158,-46) scale(1,1)"><rect fill="#C0C0C0" stroke="none" x="663" y="751" width="135.81982421875" height="85" opacity="0.2"/></g><g transform="translate(-158,-46) scale(1,1)"><rect fill="#ffffff" stroke="none" x="656" y="744" width="135.81982421875" height="85"/></g><g transform="translate(-158,-46) scale(1,1)"><path fill="none" stroke="#000000" d="M 656 744 L 791.81982421875 744 L 791.81982421875 829 L 656 829 L 656 744 Z Z" stroke-miterlimit="10"/></g><g transform="translate(-158,-46) scale(1,1)"><path fill="none" stroke="#000000" d="M 656 769 L 791.81982421875 769" stroke-miterlimit="10"/></g><g transform="translate(-158,-46) scale(1,1)"><path fill="none" stroke="#000000" d="M 656 792 L 791.81982421875 792" stroke-miterlimit="10"/></g><g transform="translate(-158,-46) scale(1,1)"><g><path fill="none" stroke="none"/><text fill="#000000" stroke="none" font-family="Arial" font-size="13px" font-style="normal" font-weight="bold" text-decoration="none" x="676.213623046875" y="763.5">Drag and Rotate</text></g></g><g transform="translate(-158,-46) scale(1,1)"><g><path fill="none" stroke="none"/><text fill="#000000" stroke="none" font-family="Arial" font-size="13px" font-style="normal" font-weight="normal" text-decoration="none" x="661" y="786.5">-_go: GameObject</text></g></g><g transform="translate(-158,-46) scale(1,1)"><g><path fill="none" stroke="none"/><text fill="#000000" stroke="none" font-family="Arial" font-size="13px" font-style="normal" font-weight="normal" text-decoration="none" x="661" y="809.5">+HandleRotate(): void</text></g></g><g transform="translate(-158,-46) scale(1,1)"><g><path fill="none" stroke="none"/><text fill="#000000" stroke="none" font-family="Arial" font-size="13px" font-style="normal" font-weight="normal" text-decoration="none" x="661" y="824.5">+HandleDrag(): void</text></g></g><g transform="translate(-158,-46) scale(1,1)"><path fill="none" stroke="#000000" d="M 359 636 L 307 743" stroke-miterlimit="10"/></g><g transform="translate(-158,-46) scale(1,1)"><g><path fill="none" stroke="none"/><text fill="#000000" stroke="none" font-family="Arial" font-size="13px" font-style="normal" font-weight="normal" text-decoration="none" x="334.5" y="656.5">1</text></g></g><g transform="translate(-158,-46) scale(1,1)"><g><path fill="none" stroke="none"/><text fill="#000000" stroke="none" font-family="Arial" font-size="13px" font-style="normal" font-weight="normal" text-decoration="none" x="295.5" y="724.5">0..*</text></g></g><g transform="translate(-158,-46) scale(1,1)"><path fill="none" stroke="#000000" d="M 480 635 L 655 744" stroke-miterlimit="10"/></g><g transform="translate(-158,-46) scale(1,1)"><g><path fill="none" stroke="none"/><text fill="#000000" stroke="none" font-family="Arial" font-size="13px" font-style="normal" font-weight="normal" text-decoration="none" x="487.5" y="663.5">1</text></g></g><g transform="translate(-158,-46) scale(1,1)"><g><path fill="none" stroke="none"/><text fill="#000000" stroke="none" font-family="Arial" font-size="13px" font-style="normal" font-weight="normal" text-decoration="none" x="620.5" y="749.5">0..*</text></g></g><g transform="translate(-158,-46) scale(1,1)"><path fill="none" stroke="#000000" d="M 422 636 L 485 743" stroke-miterlimit="10"/></g><g transform="translate(-158,-46) scale(1,1)"><g><path fill="none" stroke="none"/><text fill="#000000" stroke="none" font-family="Arial" font-size="13px" font-style="normal" font-weight="normal" text-decoration="none" x="418.5" y="666.5">1</text></g></g><g transform="translate(-158,-46) scale(1,1)"><g><path fill="none" stroke="none"/><text fill="#000000" stroke="none" font-family="Arial" font-size="13px" font-style="normal" font-weight="normal" text-decoration="none" x="453.5" y="736.5">0..*</text></g></g><g transform="translate(-158,-46) scale(1,1)"><rect fill="#C0C0C0" stroke="none" x="175" y="63" width="107.2236328125" height="57" opacity="0.2"/></g><g transform="translate(-158,-46) scale(1,1)"><rect fill="#ffffff" stroke="none" x="168" y="56" width="107.2236328125" height="57"/></g><g transform="translate(-158,-46) scale(1,1)"><path fill="none" stroke="#000000" d="M 168 56 L 275.2236328125 56 L 275.2236328125 113 L 168 113 L 168 56 Z Z" stroke-miterlimit="10"/></g><g transform="translate(-158,-46) scale(1,1)"><path fill="none" stroke="#000000" d="M 168 81 L 275.2236328125 81" stroke-miterlimit="10"/></g><g transform="translate(-158,-46) scale(1,1)"><path fill="none" stroke="#000000" d="M 168 91 L 275.2236328125 91" stroke-miterlimit="10"/></g><g transform="translate(-158,-46) scale(1,1)"><g><path fill="none" stroke="none"/><text fill="#000000" stroke="none" font-family="Arial" font-size="13px" font-style="normal" font-weight="bold" text-decoration="none" x="176.083251953125" y="75.5">MonoBehaviour</text></g></g><g transform="translate(-158,-46) scale(1,1)"><path fill="none" stroke="#000000" d="M 284 394 L 354 519" stroke-miterlimit="10" stroke-dasharray="3"/></g><g transform="translate(-158,-46) scale(1,1)"><path fill="none" stroke="#000000" d="M 345.36165326083477 512.1897896057498 L 354 519 L 352.707312393577 508.0762204914141" stroke-miterlimit="10"/></g><g transform="translate(-158,-46) scale(1,1)"><path fill="none" stroke="#000000" d="M 262 335 L 226 114" stroke-miterlimit="10"/></g><g transform="translate(-158,-46) scale(1,1)"><path fill="#FFFFFF" stroke="none" d="M 237.57735483889277 132.7073476189001 L 226 114 L 220.95833375544572 135.41451847412222"/></g><g transform="translate(-158,-46) scale(1,1)"><path fill="none" stroke="#000000" d="M 237.57735483889277 132.7073476189001 L 226 114 L 220.95833375544572 135.41451847412222 L 237.57735483889277 132.7073476189001" stroke-miterlimit="10"/></g><g transform="translate(-158,-46) scale(1,1)"><path fill="none" stroke="#000000" d="M 321 519 L 168 384 L 208 118 L 210 114" stroke-miterlimit="10"/></g><g transform="translate(-158,-46) scale(1,1)"><path fill="#FFFFFF" stroke="none" d="M 208.44044155800506 135.94465259387812 L 210 114 L 193.38001299009446 128.41443830992284"/></g><g transform="translate(-158,-46) scale(1,1)"><path fill="none" stroke="#000000" d="M 208.44044155800506 135.94465259387812 L 210 114 L 193.38001299009446 128.41443830992284 L 208.44044155800506 135.94465259387812" stroke-miterlimit="10"/></g><g transform="translate(-158,-46) scale(1,1)"><path fill="none" stroke="#000000" d="M 368 207 L 471 114" stroke-miterlimit="10" stroke-dasharray="3"/></g><g transform="translate(-158,-46) scale(1,1)"><path fill="#FFFFFF" stroke="none" d="M 461.5562403015955 133.86996232404056 L 471 114 L 450.2720683761117 121.37243857861223"/></g><g transform="translate(-158,-46) scale(1,1)"><path fill="none" stroke="#000000" d="M 461.5562403015955 133.86996232404056 L 471 114 L 450.2720683761117 121.37243857861223 L 461.5562403015955 133.86996232404056" stroke-miterlimit="10"/></g><g transform="translate(-158,-46) scale(1,1)"><path fill="none" stroke="#000000" d="M 323 207 L 246 114" stroke-miterlimit="10"/></g><g transform="translate(-158,-46) scale(1,1)"><path fill="#FFFFFF" stroke="none" d="M 265.4470276407516 124.28655024485094 L 246 114 L 252.47743568554745 135.02481455184792"/></g><g transform="translate(-158,-46) scale(1,1)"><path fill="none" stroke="#000000" d="M 265.4470276407516 124.28655024485094 L 246 114 L 252.47743568554745 135.02481455184792 L 265.4470276407516 124.28655024485094" stroke-miterlimit="10"/></g><g transform="translate(-158,-46) scale(1,1)"><path fill="none" stroke="#000000" d="M 435 335 L 408 128 L 276 97" stroke-miterlimit="10"/></g><g transform="translate(-158,-46) scale(1,1)"><path fill="#FFFFFF" stroke="none" d="M 297.7118378109905 93.45090168222366 L 276 97 L 293.8621792357713 109.84299626057646"/></g><g transform="translate(-158,-46) scale(1,1)"><path fill="none" stroke="#000000" d="M 297.7118378109905 93.45090168222366 L 276 97 L 293.8621792357713 109.84299626057646 L 297.7118378109905 93.45090168222366" stroke-miterlimit="10"/></g></g></svg>